<?xml version="1.0" encoding="UTF-8"?>
<svg xmlns="http://www.w3.org/2000/svg" width="1024" height="1024" viewBox="0 0 1024 1024" role="img" aria-label="Dogecoin Shiba minimal logo with white interior">
  <title>Dogecoin Shiba Minimal Logo with White Interior</title>
  <!-- White base only inside the outer head silhouette -->
  <path d="M 240.89 108.61 L 236.81 111.06 L 227.83 121.67 L 223.74 129.84 L 218.03 146.17 L 211.50 173.93 L 209.86 188.63 L 208.23 194.35 L 208.23 200.06 L 207.41 200.88 L 206.60 216.40 L 205.78 217.21 L 205.78 228.64 L 204.96 229.46 L 204.96 281.72 L 205.78 282.54 L 205.78 297.24 L 206.60 298.05 L 208.23 323.37 L 209.86 329.90 L 211.50 347.87 L 212.31 348.68 L 212.31 352.77 L 213.95 357.67 L 213.95 362.56 L 214.76 363.38 L 214.76 367.46 L 217.21 378.08 L 217.21 384.61 L 202.51 414.83 L 202.51 416.46 L 200.06 420.54 L 198.43 426.26 L 195.98 430.34 L 187.81 450.76 L 185.37 459.74 L 183.73 462.19 L 165.77 520.17 L 160.87 539.76 L 158.42 556.10 L 157.60 556.91 L 156.78 567.53 L 155.97 568.34 L 155.15 597.74 L 155.97 598.56 L 156.78 612.44 L 162.50 636.94 L 173.12 664.70 L 188.63 694.10 L 210.68 725.95 L 237.63 756.98 L 262.12 780.66 L 293.15 806.79 L 337.25 838.63 L 372.36 860.68 L 400.13 875.38 L 401.76 877.01 L 414.83 882.73 L 416.46 884.36 L 418.09 884.36 L 431.16 890.90 L 451.57 899.06 L 473.62 905.59 L 476.89 905.59 L 485.05 908.04 L 495.67 908.86 L 496.48 909.68 L 526.70 909.68 L 527.52 908.86 L 534.05 908.86 L 534.86 908.04 L 551.20 905.59 L 561.00 903.15 L 566.71 900.70 L 569.16 900.70 L 595.29 890.90 L 613.26 881.91 L 614.89 881.91 L 631.22 873.75 L 659.80 857.42 L 701.45 829.65 L 743.09 796.99 L 758.61 783.11 L 785.56 756.16 L 816.59 719.41 L 837.00 688.38 L 853.33 654.90 L 859.87 636.12 L 859.87 633.67 L 863.95 620.61 L 863.95 616.52 L 866.40 605.91 L 866.40 597.74 L 867.22 596.93 L 867.22 574.88 L 866.40 574.06 L 866.40 565.89 L 865.58 565.08 L 863.95 549.56 L 860.68 538.95 L 859.87 532.41 L 858.23 529.15 L 854.97 514.45 L 850.88 503.83 L 850.88 501.38 L 832.10 448.31 L 819.04 418.91 L 819.04 417.28 L 802.70 384.61 L 805.15 375.63 L 805.97 368.28 L 807.60 364.20 L 810.05 347.87 L 810.87 347.05 L 810.87 342.97 L 813.32 332.35 L 813.32 326.63 L 814.14 325.82 L 814.14 320.10 L 814.95 319.29 L 814.95 313.57 L 815.77 312.75 L 815.77 306.22 L 816.59 305.40 L 817.40 281.72 L 818.22 280.91 L 818.22 230.28 L 817.40 229.46 L 817.40 217.21 L 816.59 216.40 L 815.77 200.88 L 814.95 200.06 L 814.95 194.35 L 814.14 193.53 L 814.14 188.63 L 813.32 187.81 L 812.50 178.83 L 810.87 173.93 L 810.87 169.85 L 804.34 144.54 L 802.70 142.09 L 799.44 131.47 L 792.09 118.41 L 784.74 111.06 L 776.57 106.97 L 764.33 106.97 L 752.08 111.87 L 736.56 121.67 L 721.05 133.10 L 690.83 159.23 L 652.45 197.61 L 629.59 223.74 L 600.19 213.95 L 587.13 211.50 L 579.78 209.05 L 567.53 207.41 L 566.71 206.60 L 561.81 206.60 L 561.00 205.78 L 548.75 204.96 L 547.93 204.15 L 527.52 203.33 L 526.70 202.51 L 499.75 202.51 L 498.93 203.33 L 486.69 203.33 L 485.87 204.15 L 463.82 205.78 L 463.00 206.60 L 453.21 207.41 L 444.22 209.86 L 431.97 211.50 L 413.19 217.21 L 410.74 217.21 L 397.68 222.11 L 394.41 222.11 L 368.28 192.71 L 345.42 169.85 L 322.55 149.44 L 302.95 133.92 L 285.81 121.67 L 266.21 110.24 L 256.41 106.97 L 245.79 106.97 Z" fill="#ffffff"/>
  <!-- Original golden mark with internal holes revealing the white base -->
  <path d="M 240.89 108.61 L 236.81 111.06 L 227.83 121.67 L 223.74 129.84 L 218.03 146.17 L 211.50 173.93 L 209.86 188.63 L 208.23 194.35 L 208.23 200.06 L 207.41 200.88 L 206.60 216.40 L 205.78 217.21 L 205.78 228.64 L 204.96 229.46 L 204.96 281.72 L 205.78 282.54 L 205.78 297.24 L 206.60 298.05 L 208.23 323.37 L 209.86 329.90 L 211.50 347.87 L 212.31 348.68 L 212.31 352.77 L 213.95 357.67 L 213.95 362.56 L 214.76 363.38 L 214.76 367.46 L 217.21 378.08 L 217.21 384.61 L 202.51 414.83 L 202.51 416.46 L 200.06 420.54 L 198.43 426.26 L 195.98 430.34 L 187.81 450.76 L 185.37 459.74 L 183.73 462.19 L 165.77 520.17 L 160.87 539.76 L 158.42 556.10 L 157.60 556.91 L 156.78 567.53 L 155.97 568.34 L 155.15 597.74 L 155.97 598.56 L 156.78 612.44 L 162.50 636.94 L 173.12 664.70 L 188.63 694.10 L 210.68 725.95 L 237.63 756.98 L 262.12 780.66 L 293.15 806.79 L 337.25 838.63 L 372.36 860.68 L 400.13 875.38 L 401.76 877.01 L 414.83 882.73 L 416.46 884.36 L 418.09 884.36 L 431.16 890.90 L 451.57 899.06 L 473.62 905.59 L 476.89 905.59 L 485.05 908.04 L 495.67 908.86 L 496.48 909.68 L 526.70 909.68 L 527.52 908.86 L 534.05 908.86 L 534.86 908.04 L 551.20 905.59 L 561.00 903.15 L 566.71 900.70 L 569.16 900.70 L 595.29 890.90 L 613.26 881.91 L 614.89 881.91 L 631.22 873.75 L 659.80 857.42 L 701.45 829.65 L 743.09 796.99 L 758.61 783.11 L 785.56 756.16 L 816.59 719.41 L 837.00 688.38 L 853.33 654.90 L 859.87 636.12 L 859.87 633.67 L 863.95 620.61 L 863.95 616.52 L 866.40 605.91 L 866.40 597.74 L 867.22 596.93 L 867.22 574.88 L 866.40 574.06 L 866.40 565.89 L 865.58 565.08 L 863.95 549.56 L 860.68 538.95 L 859.87 532.41 L 858.23 529.15 L 854.97 514.45 L 850.88 503.83 L 850.88 501.38 L 832.10 448.31 L 819.04 418.91 L 819.04 417.28 L 802.70 384.61 L 805.15 375.63 L 805.97 368.28 L 807.60 364.20 L 810.05 347.87 L 810.87 347.05 L 810.87 342.97 L 813.32 332.35 L 813.32 326.63 L 814.14 325.82 L 814.14 320.10 L 814.95 319.29 L 814.95 313.57 L 815.77 312.75 L 815.77 306.22 L 816.59 305.40 L 817.40 281.72 L 818.22 280.91 L 818.22 230.28 L 817.40 229.46 L 817.40 217.21 L 816.59 216.40 L 815.77 200.88 L 814.95 200.06 L 814.95 194.35 L 814.14 193.53 L 814.14 188.63 L 813.32 187.81 L 812.50 178.83 L 810.87 173.93 L 810.87 169.85 L 804.34 144.54 L 802.70 142.09 L 799.44 131.47 L 792.09 118.41 L 784.74 111.06 L 776.57 106.97 L 764.33 106.97 L 752.08 111.87 L 736.56 121.67 L 721.05 133.10 L 690.83 159.23 L 652.45 197.61 L 629.59 223.74 L 600.19 213.95 L 587.13 211.50 L 579.78 209.05 L 567.53 207.41 L 566.71 206.60 L 561.81 206.60 L 561.00 205.78 L 548.75 204.96 L 547.93 204.15 L 527.52 203.33 L 526.70 202.51 L 499.75 202.51 L 498.93 203.33 L 486.69 203.33 L 485.87 204.15 L 463.82 205.78 L 463.00 206.60 L 453.21 207.41 L 444.22 209.86 L 431.97 211.50 L 413.19 217.21 L 410.74 217.21 L 397.68 222.11 L 394.41 222.11 L 368.28 192.71 L 345.42 169.85 L 322.55 149.44 L 302.95 133.92 L 285.81 121.67 L 266.21 110.24 L 256.41 106.97 L 245.79 106.97 Z M 198.43 580.59 L 204.15 558.55 L 211.50 543.03 L 220.48 529.96 L 235.18 514.45 L 245.79 506.28 L 262.12 496.48 L 278.46 489.95 L 296.42 485.87 L 298.87 482.60 L 302.95 471.99 L 308.67 463.00 L 321.74 449.12 L 331.53 442.59 L 340.52 438.51 L 348.68 436.06 L 359.30 435.24 L 360.11 434.42 L 369.91 434.42 L 370.73 435.24 L 378.90 436.06 L 383.80 437.69 L 396.04 444.22 L 408.29 456.47 L 413.19 463.82 L 418.91 476.07 L 424.63 496.48 L 424.63 503.83 L 420.54 520.17 L 418.91 523.43 L 418.91 525.88 L 415.64 534.05 L 415.64 536.50 L 406.66 564.26 L 407.48 570.79 L 411.56 575.69 L 415.64 577.33 L 424.63 576.51 L 437.69 569.98 L 454.02 563.44 L 480.15 556.10 L 495.67 554.46 L 496.48 553.65 L 526.70 553.65 L 527.52 554.46 L 533.23 554.46 L 534.05 555.28 L 546.30 556.91 L 556.10 560.18 L 558.55 560.18 L 574.88 565.89 L 597.74 576.51 L 606.72 577.33 L 610.81 575.69 L 614.07 572.43 L 615.71 567.53 L 615.71 562.63 L 605.91 533.23 L 605.91 530.78 L 601.82 519.35 L 597.74 503.02 L 597.74 497.30 L 604.27 474.44 L 609.99 463.00 L 614.89 455.66 L 622.24 447.49 L 628.77 442.59 L 634.49 439.32 L 646.74 435.24 L 666.33 434.42 L 684.30 439.32 L 695.73 445.04 L 703.90 451.57 L 711.25 458.92 L 716.96 467.09 L 725.95 485.87 L 739.01 488.32 L 751.26 492.40 L 766.78 499.75 L 786.37 513.63 L 799.44 526.70 L 809.24 539.76 L 818.22 557.73 L 823.94 578.96 L 824.75 601.82 L 823.94 602.64 L 823.94 609.17 L 823.12 609.99 L 822.30 618.97 L 814.14 645.10 L 801.89 669.60 L 788.82 690.02 L 775.76 707.16 L 756.16 730.03 L 727.58 758.61 L 708.80 774.94 L 675.32 801.07 L 650.00 818.22 L 615.71 838.63 L 589.58 851.70 L 587.94 851.70 L 567.53 860.68 L 546.30 867.22 L 534.05 868.85 L 533.23 869.67 L 528.33 869.67 L 527.52 870.48 L 499.75 870.48 L 498.93 869.67 L 485.05 868.03 L 462.19 861.50 L 441.77 852.52 L 440.14 852.52 L 409.11 837.00 L 372.36 814.95 L 342.97 795.36 L 311.12 770.86 L 289.07 752.08 L 260.49 723.50 L 249.88 711.25 L 235.18 692.47 L 218.03 665.52 L 206.60 641.02 L 200.88 622.24 L 199.25 609.99 L 198.43 609.17 L 198.43 601.82 L 197.61 601.01 Z M 400.13 707.98 L 401.76 714.51 L 408.29 724.31 L 412.38 728.40 L 418.09 732.48 L 426.26 736.56 L 434.42 739.01 L 438.51 739.01 L 439.32 739.83 L 461.37 739.83 L 462.19 739.01 L 474.44 737.38 L 486.69 733.30 L 501.38 725.95 L 510.37 719.41 L 512.00 719.41 L 517.72 724.31 L 537.31 734.93 L 556.10 740.64 L 560.18 740.64 L 561.00 741.46 L 566.71 741.46 L 567.53 742.28 L 588.76 742.28 L 589.58 741.46 L 595.29 741.46 L 609.99 737.38 L 619.79 732.48 L 625.51 728.40 L 636.94 716.96 L 641.02 711.25 L 648.37 695.73 L 651.64 681.03 L 649.19 675.32 L 646.74 672.87 L 641.02 670.42 L 635.30 672.05 L 631.22 676.95 L 627.96 688.38 L 623.87 696.55 L 618.16 703.90 L 609.99 711.25 L 597.74 717.78 L 591.21 719.41 L 587.13 719.41 L 586.31 720.23 L 569.98 720.23 L 554.46 716.15 L 543.03 710.43 L 537.31 706.35 L 530.78 699.81 L 525.07 690.02 L 522.62 680.22 L 522.62 667.97 L 525.88 658.99 L 530.78 654.09 L 534.05 652.45 L 538.95 652.45 L 546.30 655.72 L 551.20 655.72 L 556.10 653.27 L 564.26 645.92 L 569.98 637.75 L 574.88 625.51 L 575.69 613.26 L 574.06 606.72 L 570.79 601.01 L 564.26 594.48 L 555.28 589.58 L 537.31 584.68 L 533.23 584.68 L 532.41 583.86 L 525.88 583.86 L 525.07 583.04 L 497.30 583.04 L 496.48 583.86 L 485.05 584.68 L 474.44 587.13 L 460.56 592.84 L 451.57 601.01 L 448.31 606.72 L 446.67 613.26 L 446.67 622.24 L 450.76 635.30 L 457.29 645.10 L 464.64 652.45 L 471.17 655.72 L 476.07 655.72 L 482.60 652.45 L 488.32 652.45 L 491.59 654.09 L 497.30 660.62 L 499.75 670.42 L 498.93 684.30 L 497.30 690.02 L 493.22 697.37 L 485.05 706.35 L 476.89 712.06 L 468.72 716.15 L 453.21 720.23 L 437.69 720.23 L 427.07 717.78 L 418.09 712.88 L 409.93 704.71 L 406.66 703.08 L 401.76 704.71 Z M 684.30 465.45 L 685.12 473.62 L 682.67 480.15 L 675.32 486.69 L 666.33 487.50 L 661.44 485.05 L 658.17 481.79 L 655.72 476.89 L 656.54 467.09 L 661.44 461.37 L 666.33 458.92 L 675.32 458.92 L 680.22 460.56 L 674.50 454.84 L 670.42 452.39 L 658.99 449.12 L 645.92 449.94 L 634.49 454.84 L 627.14 461.37 L 623.06 467.09 L 616.52 482.60 L 614.89 489.14 L 614.89 495.67 L 614.07 496.48 L 614.07 504.65 L 616.52 511.18 L 618.97 513.63 L 621.42 513.63 L 631.22 516.90 L 641.02 517.72 L 641.84 518.53 L 658.99 518.53 L 668.78 516.08 L 678.58 511.18 L 685.12 504.65 L 688.38 499.75 L 691.65 488.32 L 691.65 483.42 L 690.83 482.60 L 690.02 476.07 Z M 339.70 463.00 L 336.43 467.90 L 332.35 477.70 L 331.53 489.95 L 333.17 496.48 L 336.43 503.02 L 345.42 512.00 L 351.95 515.27 L 365.01 518.53 L 387.06 517.72 L 400.94 514.45 L 405.84 512.00 L 408.29 506.28 L 407.48 489.14 L 403.39 475.25 L 397.68 465.45 L 397.68 468.72 L 398.49 469.54 L 397.68 476.89 L 396.04 480.15 L 388.70 486.69 L 386.25 487.50 L 378.08 486.69 L 374.81 485.05 L 371.55 481.79 L 369.10 476.89 L 369.10 468.72 L 374.00 462.19 L 379.71 458.92 L 388.70 458.92 L 393.59 460.56 L 387.88 454.84 L 377.26 449.94 L 373.18 449.94 L 372.36 449.12 L 359.30 449.94 L 351.13 453.21 L 346.23 456.47 Z M 346.23 380.53 L 353.58 374.00 L 364.20 369.91 L 371.55 369.10 L 372.36 368.28 L 391.96 368.28 L 407.48 372.36 L 422.99 381.35 L 433.61 392.78 L 438.51 401.76 L 440.96 409.93 L 440.96 413.19 L 441.77 414.01 L 440.96 424.63 L 439.32 427.89 L 435.24 431.97 L 431.97 433.61 L 427.07 433.61 L 422.18 431.97 L 399.31 411.56 L 389.51 404.21 L 369.10 392.78 L 349.50 386.25 L 346.23 382.98 Z M 673.68 379.71 L 674.50 382.98 L 672.05 386.25 L 655.72 391.15 L 638.57 399.31 L 622.24 410.74 L 602.64 428.71 L 596.11 432.79 L 593.66 433.61 L 586.31 432.79 L 582.23 429.52 L 578.96 422.99 L 578.96 411.56 L 581.41 402.58 L 585.49 394.41 L 589.58 388.70 L 596.11 382.16 L 604.27 376.45 L 610.81 373.18 L 627.96 368.28 L 636.12 368.28 L 636.94 367.46 L 649.19 368.28 L 663.89 372.36 L 669.60 375.63 Z M 751.26 173.93 L 758.61 173.93 L 763.51 178.02 L 765.96 182.10 L 770.86 199.25 L 772.49 215.58 L 773.31 216.40 L 773.31 224.56 L 774.12 225.38 L 774.94 253.96 L 774.12 254.78 L 773.31 282.54 L 772.49 283.36 L 771.67 297.24 L 770.86 298.05 L 770.86 302.95 L 768.41 312.75 L 768.41 316.84 L 765.96 326.63 L 762.69 334.80 L 761.06 334.80 L 751.26 323.37 L 722.68 294.79 L 703.08 277.64 L 678.58 258.86 L 678.58 257.22 L 685.93 244.16 L 697.37 227.01 L 712.06 208.23 L 731.66 187.81 L 741.46 179.65 Z M 268.66 173.12 L 271.92 173.93 L 281.72 179.65 L 290.70 187.00 L 307.04 203.33 L 320.10 218.85 L 333.98 238.44 L 341.33 250.69 L 344.60 258.86 L 337.25 263.76 L 307.85 287.44 L 272.74 321.74 L 262.12 333.98 L 260.49 333.98 L 258.86 331.53 L 258.04 326.63 L 256.41 323.37 L 256.41 320.10 L 253.96 311.12 L 253.14 301.32 L 252.33 300.50 L 251.51 287.44 L 250.69 286.62 L 249.88 269.47 L 249.06 268.66 L 249.06 224.56 L 249.88 223.74 L 249.88 213.95 L 250.69 213.13 L 251.51 201.70 L 255.59 185.37 L 258.86 178.83 L 262.94 174.75 Z" fill="#f0b90b" fill-rule="evenodd" clip-rule="evenodd"/>
</svg>
